<?xml version="1.0" encoding="UTF-8" standalone="no"?>
<svg
   xmlns:dc="http://purl.org/dc/elements/1.1/"
   xmlns:cc="http://creativecommons.org/ns#"
   xmlns:rdf="http://www.w3.org/1999/02/22-rdf-syntax-ns#"
   xmlns:svg="http://www.w3.org/2000/svg"
   xmlns="http://www.w3.org/2000/svg"
   xmlns:xlink="http://www.w3.org/1999/xlink"
   xmlns:sodipodi="http://sodipodi.sourceforge.net/DTD/sodipodi-0.dtd"
   xmlns:inkscape="http://www.inkscape.org/namespaces/inkscape"
   inkscape:version="1.0 (4035a4fb49, 2020-05-01)"
   sodipodi:docname="desktop.svg"
   id="svg55"
   version="1.1"
   viewBox="0 0 48 48">
  <metadata
     id="metadata61">
    <rdf:RDF>
      <cc:Work
         rdf:about="">
        <dc:format>image/svg+xml</dc:format>
        <dc:type
           rdf:resource="http://purl.org/dc/dcmitype/StillImage" />
      </cc:Work>
    </rdf:RDF>
  </metadata>
  <defs
     id="defs59" />
  <sodipodi:namedview
     inkscape:current-layer="g53"
     inkscape:window-maximized="1"
     inkscape:window-y="0"
     inkscape:window-x="0"
     inkscape:cy="31.045872"
     inkscape:cx="24"
     inkscape:zoom="11.354167"
     showgrid="false"
     id="namedview57"
     inkscape:window-height="708"
     inkscape:window-width="1366"
     inkscape:pageshadow="2"
     inkscape:pageopacity="0"
     guidetolerance="10"
     gridtolerance="10"
     objecttolerance="10"
     borderopacity="1"
     bordercolor="#666666"
     pagecolor="#ffffff" />
  <linearGradient
     gradientUnits="userSpaceOnUse"
     y2="31.355107"
     y1="5.341264"
     x2="12.000011"
     x1="42.798412"
     id="a">
    <stop
       id="stop2"
       offset="0"
       stop-color="#5d0e0a" />
    <stop
       id="stop4"
       offset="1"
       stop-color="#cb251b" />
  </linearGradient>
  <linearGradient
     gradientUnits="userSpaceOnUse"
     y2="28.506301"
     y1="22.348567"
     x2="54.317608"
     x1="29.85095"
     id="b">
    <stop
       id="stop7"
       offset="0"
       stop-color="#e2433b" />
    <stop
       id="stop9"
       offset="1"
       stop-color="#cc241b" />
  </linearGradient>
  <linearGradient
     xlink:href="#d"
     gradientUnits="userSpaceOnUse"
     y2="25.343179"
     y1="41.223652"
     x2="20.645595"
     x1="24.393862"
     id="c" />
  <linearGradient
     id="d">
    <stop
       id="stop13"
       offset="0"
       stop-color="#101010" />
    <stop
       id="stop15"
       offset="1"
       stop-color="#272727" />
  </linearGradient>
  <linearGradient
     xlink:href="#d"
     gradientUnits="userSpaceOnUse"
     gradientTransform="matrix(-1 0 0 1 839.14285 -40.00001)"
     y2="562.79803"
     y1="568.79803"
     x2="439.57141"
     x1="431.57141"
     id="e" />
  <linearGradient
     xlink:href="#d"
     gradientUnits="userSpaceOnUse"
     gradientTransform="matrix(-.91666628 0 0 .91666628 428.69029 -492.4813)"
     y2="572.67786"
     y1="581.87024"
     x2="423.31955"
     x1="406.53735"
     id="f" />
  <linearGradient
     xlink:href="#d"
     gradientUnits="userSpaceOnUse"
     gradientTransform="matrix(-.91666628 0 0 .91666628 448.69029 -492.4813)"
     y2="566.76562"
     y1="572.33411"
     x2="431.22452"
     x1="423.05438"
     id="g" />
  <linearGradient
     xlink:href="#d"
     gradientUnits="userSpaceOnUse"
     gradientTransform="matrix(-.91666628 0 0 .91666628 428.69029 -492.4813)"
     y2="571.44531"
     y1="577.10217"
     x2="440.63208"
     x1="431.3129"
     id="h" />
  <linearGradient
     xlink:href="#d"
     gradientUnits="userSpaceOnUse"
     gradientTransform="matrix(-.91666628 0 0 .91666628 428.69029 -492.4813)"
     y2="591.32782"
     y1="577.36243"
     x2="423.74994"
     x1="430.56738"
     id="i" />
  <g
     id="g43"
     transform="matrix(.83653804 0 0 1.0999992 -317.70862 -548.17744)">
    <path
       id="path23"
       fill="url(#a)"
       d="m12 6v30l43.831392 3.4e-5v-30.000008z"
       transform="matrix(1.0909096 0 0 1.0909096 371.48052 497.25255)" />
    <g
       id="g41"
       stroke-width="2"
       stroke-linecap="round">
      <path
         id="path25"
         fill="url(#b)"
         d="m55.831392 6.0000264-30.112642 17.482396 21.681641 12.517578 8.431001 3.4e-5z"
         transform="matrix(1.0909096 0 0 1.0909096 371.48052 497.25255)" />
      <path
         id="path27"
         fill="url(#c)"
         d="m25.75 23.416016-13.75 7.939453v4.644531h35.605469z"
         transform="matrix(1.0909096 0 0 1.0909096 371.48052 497.25255)" />
      <path
         id="path29"
         fill="url(#e)"
         d="m407.82995 527.56606-8.25852-4.76806v9.53611z" />
      <path
         id="path31"
         fill="url(#f)"
         d="m40.890625 32.15625v3.84375h6.65625z"
         transform="matrix(1.0909096 0 0 1.0909096 371.48052 497.25255)" />
      <path
         id="path33"
         fill="url(#g)"
         d="m53.320312 27.787109v8.212891h.916016l6.654297-3.841797z"
         transform="matrix(1.0909096 0 0 1.0909096 349.66233 497.25255)" />
      <path
         id="path35"
         fill="url(#h)"
         d="m25.75 32.158203v3.841797h6.654297z"
         transform="matrix(1.0909096 0 0 1.0909096 371.48052 497.25255)" />
      <path
         id="path37"
         fill="url(#i)"
         d="m40.890625 32.15625-6.65625 3.84375h6.65625z"
         transform="matrix(1.0909096 0 0 1.0909096 371.48052 497.25255)" />
      <path
         id="path39"
         fill="#cc241b"
         d="m399.53737 522.87024 32.85015-19.0722v9.35561z" />
    </g>
  </g>
  <g
     id="g53"
     transform="matrix(0.69230765,0,0,0.69230765,-264.31867,-333.0909)">
    <path
       style="fill:#1c1c1c;fill-opacity:0.78431374"
       id="path45"
       stroke-width="1.1547"
       fill-opacity="0.784314"
       fill="#ffffff"
       d="m 387.57142,536.02022 1e-5,5.77778 57.77777,-10e-6 v -5.77777 z" />
    <g
       style="fill:#c0c0c0;fill-opacity:1"
       id="g51"
       stroke-width="1.44445"
       fill="#161616">
      <circle
         style="fill:#c0c0c0;fill-opacity:1"
         id="circle47"
         r="1.444445"
         cy="538.90906"
         cx="442.46033" />
      <path
         style="fill:#c0c0c0;fill-opacity:1"
         id="path49"
         d="m 389.01588,537.46467 v 1.44444 h 1.44444 v -1.44444 z m 1.44444,1.44444 v 1.44445 h 1.44445 v -1.44445 z" />
    </g>
  </g>
</svg>
